<mxfile host="app.diagrams.net" modified="2023-08-29T02:34:46.107Z" agent="Mozilla/5.0 (Windows NT 10.0; Win64; x64) AppleWebKit/537.36 (KHTML, like Gecko) Chrome/116.0.0.0 Safari/537.36" etag="mX8OtwvnPIEHiHqz7hwy" version="21.6.9" type="github">
  <diagram name="Page-1" id="e4OKyPdjwzPwtMG92OqL">
    <mxGraphModel dx="795" dy="517" grid="1" gridSize="10" guides="1" tooltips="1" connect="1" arrows="1" fold="1" page="1" pageScale="1" pageWidth="850" pageHeight="1100" math="0" shadow="0">
      <root>
        <mxCell id="0" />
        <mxCell id="1" parent="0" />
        <mxCell id="WEcOXew9nEGM572D597--1" value="&lt;h3 style=&quot;font-size: 15px;&quot;&gt;&lt;font style=&quot;font-size: 15px; font-weight: normal;&quot;&gt;Game Tebak Angka&lt;/font&gt;&lt;/h3&gt;" style="rounded=0;whiteSpace=wrap;html=1;fontSize=15;verticalAlign=top;" vertex="1" parent="1">
          <mxGeometry x="265" y="120" width="230" height="370" as="geometry" />
        </mxCell>
        <mxCell id="WEcOXew9nEGM572D597--2" value="Random angka" style="ellipse;whiteSpace=wrap;html=1;" vertex="1" parent="1">
          <mxGeometry x="320" y="180" width="120" height="50" as="geometry" />
        </mxCell>
        <mxCell id="WEcOXew9nEGM572D597--3" value="Cek Angka" style="ellipse;whiteSpace=wrap;html=1;" vertex="1" parent="1">
          <mxGeometry x="320" y="270" width="120" height="50" as="geometry" />
        </mxCell>
        <mxCell id="WEcOXew9nEGM572D597--4" value="Menebak Angka" style="ellipse;whiteSpace=wrap;html=1;" vertex="1" parent="1">
          <mxGeometry x="320" y="370" width="120" height="50" as="geometry" />
        </mxCell>
        <mxCell id="WEcOXew9nEGM572D597--5" value="komputer" style="shape=umlActor;verticalLabelPosition=bottom;verticalAlign=top;html=1;outlineConnect=0;" vertex="1" parent="1">
          <mxGeometry x="80" y="190" width="60" height="130" as="geometry" />
        </mxCell>
        <mxCell id="WEcOXew9nEGM572D597--6" value="pemain" style="shape=umlActor;verticalLabelPosition=bottom;verticalAlign=top;html=1;outlineConnect=0;" vertex="1" parent="1">
          <mxGeometry x="610" y="190" width="60" height="130" as="geometry" />
        </mxCell>
        <mxCell id="WEcOXew9nEGM572D597--14" value="" style="endArrow=none;html=1;rounded=0;entryX=0;entryY=0.5;entryDx=0;entryDy=0;exitX=1;exitY=0.3333333333333333;exitDx=0;exitDy=0;exitPerimeter=0;" edge="1" parent="1" source="WEcOXew9nEGM572D597--5" target="WEcOXew9nEGM572D597--2">
          <mxGeometry width="50" height="50" relative="1" as="geometry">
            <mxPoint x="370" y="280" as="sourcePoint" />
            <mxPoint x="420" y="230" as="targetPoint" />
            <Array as="points" />
          </mxGeometry>
        </mxCell>
        <mxCell id="WEcOXew9nEGM572D597--15" value="" style="endArrow=none;html=1;rounded=0;entryX=1;entryY=0.3333333333333333;entryDx=0;entryDy=0;entryPerimeter=0;" edge="1" parent="1" target="WEcOXew9nEGM572D597--5">
          <mxGeometry width="50" height="50" relative="1" as="geometry">
            <mxPoint x="330" y="280" as="sourcePoint" />
            <mxPoint x="150" y="250" as="targetPoint" />
          </mxGeometry>
        </mxCell>
        <mxCell id="WEcOXew9nEGM572D597--16" value="" style="endArrow=none;html=1;rounded=0;entryX=0;entryY=0.3333333333333333;entryDx=0;entryDy=0;entryPerimeter=0;" edge="1" parent="1" source="WEcOXew9nEGM572D597--4" target="WEcOXew9nEGM572D597--6">
          <mxGeometry width="50" height="50" relative="1" as="geometry">
            <mxPoint x="370" y="280" as="sourcePoint" />
            <mxPoint x="420" y="230" as="targetPoint" />
          </mxGeometry>
        </mxCell>
      </root>
    </mxGraphModel>
  </diagram>
</mxfile>
